<svg xmlns="http://www.w3.org/2000/svg" width="16" height="16" viewBox="0 0 16 16" fill="none">
  <path d="M0.5 14.5H15.5M1.8 14.5L2.8 4.2C2.9 3.5 3.4 3 4.1 3H11.9C12.6 3 13.1 3.5 13.2 4.2L14.2 14.5" stroke="#6C707E" stroke-linecap="round" stroke-linejoin="round"/>
  <g transform="translate(8 9) scale(1.2) translate(-8 -8.5)" stroke="#CC5500" stroke-width="0.8" stroke-linecap="round" stroke-linejoin="round">
    <path d="M8 5.6C7.3 5 6.1 5.1 5.8 5.9C4.9 5.9 4.4 6.8 4.7 7.6C4 8.1 4.2 9.3 4.8 9.6C4.7 10.5 5.5 11.3 6.4 11.1C6.8 11.8 7.6 11.8 8 11.4Z"/>
    <path d="M8 5.6C8.7 5 9.9 5.1 10.2 5.9C11.1 5.9 11.6 6.8 11.3 7.6C12 8.1 11.8 9.3 11.2 9.6C11.3 10.5 10.5 11.3 9.6 11.1C9.2 11.8 8.4 11.8 8 11.4"/>
    <path d="M8 8.5H9.4"/>
    <circle cx="9.9" cy="8.5" r="0.6" fill="#CC5500" stroke="none"/>
  </g>
</svg>
